<svg width="171" height="41" viewBox="0 0 171 41" fill="none" xmlns="http://www.w3.org/2000/svg">
<path d="M14.8386 0L0.109684 7.92275H29.696C29.696 7.92275 14.7446 0.0559472 14.8386 0ZM0 11.2423V41H30V11.2423H0ZM24.2777 34.3454C24.2767 34.5841 24.1808 34.8129 24.0107 34.9819C23.8402 35.1507 23.6096 35.2458 23.3688 35.2468H6.78471C6.54419 35.2452 6.31398 35.1498 6.14391 34.981C5.97383 34.8122 5.87753 34.5841 5.8759 34.3454V17.8938C5.87756 17.6555 5.97393 17.4275 6.14409 17.2593C6.31426 17.0911 6.54447 16.9963 6.78471 16.9955H23.3688C23.6091 16.9963 23.8392 17.0911 24.0094 17.2593C24.1796 17.4275 24.2761 17.6555 24.2777 17.8938V34.3454Z" fill="#E11F1D"/>
<path d="M47.4782 11.9492C50.0706 9.97087 53.3799 9 57.0774 9C59.2011 9.03996 61.3129 9.31966 63.3705 9.83348C63.7994 9.93729 64.3692 10.0533 64.3692 10.0533L64.8702 15.1458H64.363C63.8276 12.7888 61.7737 10.0777 56.6172 10.0777C51.1758 10.0777 46.5515 13.4361 46.5515 20.6168C46.5515 27.9014 51.2822 31.9131 57.1119 31.9131C61.7017 31.9131 64.2001 28.9975 65.0204 26.9519H65.5276L63.765 31.8368C63.765 31.8368 62.9102 32.0444 62.5126 32.1818C60.6914 32.7011 58.806 32.9765 56.9084 33C53.7055 33 50.6467 32.3741 48.0543 30.6766C45.2084 28.7685 43.0011 25.6116 43.0011 21.1389C42.9764 19.3746 43.3677 17.6282 44.1451 16.0348C44.9225 14.4414 46.065 13.0435 47.4845 11.9492M112.528 27.6083C112.528 31.2506 112.156 31.8826 110.13 32.0536H109.15V32.5573H126.727L127.979 27.6236C127.979 27.6236 127.838 27.5808 127.49 27.4954C126.567 29.2967 125.612 30.5118 124.967 30.8537C124.184 31.2353 123.154 31.3758 120.415 31.3758C117.284 31.3758 116.539 30.9941 116.113 30.5789C115.546 29.9836 115.455 29.1745 115.455 27.3427V22.0762C115.455 21.1603 115.562 21.1389 116.63 21.1389H118.69C120.077 21.1389 120.931 21.1725 121.429 21.3129C122.14 21.487 122.39 22.006 122.531 22.6288L122.844 23.9844H123.348V17.0814H122.844L122.556 18.5041C122.381 19.3681 122.13 19.5788 121.705 19.7254C121.279 19.8719 120.174 19.933 118.68 19.933H116.614C115.546 19.933 115.44 19.933 115.44 18.9621V12.0195C115.44 10.7005 115.44 10.6334 116.507 10.6334H119.068C120.634 10.6334 121.77 10.667 122.512 10.8379C124.363 11.2898 124.682 12.5049 125.214 14.1352L125.722 14.0894L125.161 9.45185H109.782V9.94034L110.355 10.0106C112.453 10.2518 112.522 10.7738 112.522 14.3825L112.528 27.6083ZM132.08 27.6083C132.08 31.2476 132.008 31.736 129.945 31.9436L128.881 32.0474V32.542H145.562L146.814 27.6083C146.814 27.6083 146.517 27.5076 146.316 27.4557C145.606 29.2234 144.663 30.5087 143.953 30.9117C143.383 31.217 142.634 31.3636 139.613 31.3636C136.795 31.3636 136.129 30.9484 135.737 30.5667C135.111 29.9042 134.989 29.0036 134.989 26.8206V14.3856C134.989 10.7433 135.061 10.1907 137.159 10.0167L137.998 9.94034V9.45185H128.874V9.94034L129.763 10.0106C132.002 10.1846 132.074 10.7372 132.074 14.3795L132.08 27.6083ZM171 32.0474V32.542H162.359V32.0474C164.679 32.0474 164.635 31.3178 164.635 30.9697C164.565 30.3417 164.409 29.7256 164.172 29.1379L162.606 24.4209C162.356 23.6577 162.212 23.5539 161.144 23.5539H155.772C154.885 23.5539 154.673 23.6577 154.419 24.3843L153.167 28.0266C152.631 29.5867 152.384 30.524 152.384 30.9056C152.384 31.2872 152.697 32.0413 154.576 32.0413V32.5481H147.346V32.0658C149.178 32.0658 150.164 31.1499 150.653 29.9012C151.294 28.3044 152.287 26.0513 153.783 22.1678L158.035 11.1616L157.885 10.728L160.227 9.02442L166.823 27.9228C167.59 30.1454 168.076 30.869 168.768 31.4063C169.424 31.8322 170.196 32.0575 170.984 32.0536M161.479 21.0901L159.544 15.4358C159.309 14.695 159.035 13.9664 158.724 13.2529H158.661C158.558 13.4269 158.201 14.2573 157.81 15.2984L155.568 21.3313C155.283 22.1312 155.321 22.1647 156.316 22.1647H160.699C161.733 22.1647 161.802 22.0274 161.482 21.087M78.0104 21.9571C76.5326 19.359 73.5771 13.4391 72.7505 11.7081C72.1244 10.3861 73.5802 9.93729 74.4975 9.93729V9.4488H66.2634V9.95255C67.0273 9.95255 68.6616 10.2579 69.8733 12.5385L74.3692 21.087C75.3992 23.0287 75.5057 23.444 75.5057 25.3613V27.535C75.5057 31.2476 75.4399 31.733 73.3736 31.9406L71.8864 32.0444V32.539H82.0366V32.0444L80.5558 31.9406C78.6365 31.8002 78.4236 31.2476 78.4236 27.535V25.3613C78.4236 23.4379 78.4236 22.7357 77.9916 21.951M109.782 32.0444C109.156 32.0444 108.496 31.7757 107.591 31.0522C105.142 29.1074 104.479 27.9472 101.642 23.4745C101.464 23.1967 99.9483 20.9924 97.7097 20.9924H91.3197C90.6747 20.9924 90.6434 21.6793 90.6434 21.6793V27.6053C90.6434 31.2476 90.5745 31.6994 88.5113 31.9406L87.4969 32.0444V32.539H96.5764V32.0444L95.7029 31.9406C93.6396 31.6628 93.5676 31.2476 93.5676 27.6053V22.8792C93.5676 22.1525 93.6647 22.0365 94.294 22.0365H95.5056C96.9301 22.0365 97.3184 22.3846 97.8538 23.1478C98.9527 24.7049 100.6 27.4404 101.523 28.7227C104.05 32.2245 105.593 32.5451 108.627 32.5451H109.789L109.782 32.0444ZM93.5613 19.7803V11.6287C93.5613 10.6578 93.6678 10.5174 95.875 10.5174C99.8199 10.5174 101.702 13.2193 101.702 15.8602C101.702 18.6415 100.155 20.0581 99.9859 20.1619C100.162 20.2242 100.351 20.2462 100.537 20.2261C101.852 20.2261 104.92 18.901 104.92 15.3412C104.954 14.3459 104.698 13.3616 104.182 12.5021C103.666 11.6426 102.912 10.9429 102.005 10.4838C100.368 9.61672 98.1011 9.44269 95.8938 9.44269H87.7536V9.94034C87.7536 9.94034 90.6371 9.97392 90.6371 12.4194V19.0995C90.6371 19.0995 90.6684 19.7864 91.3134 19.7864L93.5613 19.7803ZM83.6522 11.5737C83.4894 12.1111 81.639 15.7075 81.639 15.7075H82.3842L86.4762 9.94034V9.45185H81.1819V9.94034C81.1819 9.94034 84.1907 9.81822 83.6522 11.5768" fill="white"/>
</svg>
