<svg width="43" height="43" viewBox="0 0 43 43" fill="none" xmlns="http://www.w3.org/2000/svg">
<path d="M12.5 0.666992H30C36.6666 0.666992 42.0833 6.08366 42.0833 12.7503V30.2503C42.0833 33.455 40.8102 36.5285 38.5442 38.7945C36.2781 41.0606 33.2047 42.3337 30 42.3337H12.5C5.83329 42.3337 0.416626 36.917 0.416626 30.2503V12.7503C0.416626 9.54563 1.68969 6.47218 3.95575 4.20612C6.22182 1.94005 9.29526 0.666992 12.5 0.666992ZM12.0833 4.83366C10.0942 4.83366 8.18652 5.62384 6.77999 7.03036C5.37347 8.43688 4.58329 10.3445 4.58329 12.3337V30.667C4.58329 34.8128 7.93746 38.167 12.0833 38.167H30.4166C32.4058 38.167 34.3134 37.3768 35.7199 35.9703C37.1265 34.5638 37.9166 32.6561 37.9166 30.667V12.3337C37.9166 8.18783 34.5625 4.83366 30.4166 4.83366H12.0833ZM32.1875 7.95866C32.8781 7.95866 33.5405 8.23303 34.0289 8.7214C34.5173 9.20978 34.7916 9.87216 34.7916 10.5628C34.7916 11.2535 34.5173 11.9159 34.0289 12.4043C33.5405 12.8926 32.8781 13.167 32.1875 13.167C31.4968 13.167 30.8344 12.8926 30.346 12.4043C29.8577 11.9159 29.5833 11.2535 29.5833 10.5628C29.5833 9.87216 29.8577 9.20978 30.346 8.7214C30.8344 8.23303 31.4968 7.95866 32.1875 7.95866ZM21.25 11.0837C24.0126 11.0837 26.6622 12.1811 28.6157 14.1346C30.5692 16.0881 31.6666 18.7377 31.6666 21.5003C31.6666 24.263 30.5692 26.9125 28.6157 28.866C26.6622 30.8195 24.0126 31.917 21.25 31.917C18.4873 31.917 15.8378 30.8195 13.8843 28.866C11.9308 26.9125 10.8333 24.263 10.8333 21.5003C10.8333 18.7377 11.9308 16.0881 13.8843 14.1346C15.8378 12.1811 18.4873 11.0837 21.25 11.0837ZM21.25 15.2503C19.5924 15.2503 18.0026 15.9088 16.8305 17.0809C15.6584 18.253 15 19.8427 15 21.5003C15 23.1579 15.6584 24.7476 16.8305 25.9197C18.0026 27.0918 19.5924 27.7503 21.25 27.7503C22.9076 27.7503 24.4973 27.0918 25.6694 25.9197C26.8415 24.7476 27.5 23.1579 27.5 21.5003C27.5 19.8427 26.8415 18.253 25.6694 17.0809C24.4973 15.9088 22.9076 15.2503 21.25 15.2503Z" fill="#E9E9E9"/>
</svg>
