<svg width="38" height="39" viewBox="0 0 38 39" fill="none" xmlns="http://www.w3.org/2000/svg">
<path d="M33.8333 0.75C34.9384 0.75 35.9982 1.18899 36.7796 1.97039C37.561 2.75179 38 3.8116 38 4.91667V34.0833C38 35.1884 37.561 36.2482 36.7796 37.0296C35.9982 37.811 34.9384 38.25 33.8333 38.25H4.66667C3.5616 38.25 2.50179 37.811 1.72039 37.0296C0.938987 36.2482 0.5 35.1884 0.5 34.0833V4.91667C0.5 3.8116 0.938987 2.75179 1.72039 1.97039C2.50179 1.18899 3.5616 0.75 4.66667 0.75H33.8333ZM32.7917 33.0417V22C32.7917 20.1987 32.0761 18.4713 30.8024 17.1976C29.5287 15.9239 27.8013 15.2083 26 15.2083C24.2292 15.2083 22.1667 16.2917 21.1667 17.9167V15.6042H15.3542V33.0417H21.1667V22.7708C21.1667 21.1667 22.4583 19.8542 24.0625 19.8542C24.836 19.8542 25.5779 20.1615 26.1249 20.7084C26.6719 21.2554 26.9792 21.9973 26.9792 22.7708V33.0417H32.7917ZM8.58333 12.3333C9.51159 12.3333 10.4018 11.9646 11.0582 11.3082C11.7146 10.6518 12.0833 9.76159 12.0833 8.83333C12.0833 6.89583 10.5208 5.3125 8.58333 5.3125C7.64955 5.3125 6.75401 5.68344 6.09373 6.34373C5.43344 7.00401 5.0625 7.89955 5.0625 8.83333C5.0625 10.7708 6.64583 12.3333 8.58333 12.3333ZM11.4792 33.0417V15.6042H5.70833V33.0417H11.4792Z" fill="#E9E9E9"/>
</svg>
