<svg width="354" height="355" viewBox="0 0 354 355" fill="none" xmlns="http://www.w3.org/2000/svg">
<path fill-rule="evenodd" clip-rule="evenodd" d="M72.0644 267.766L62.4856 284.344L40.0513 323.164H3.06354C1.8474 323.164 0.7899 322.708 0 321.986V314.802L181.575 0.578295C181.695 0.37143 181.827 0.178665 181.969 0H189.079C189.222 0.178665 189.354 0.37143 189.473 0.578295L206.652 30.2937C207.465 31.7036 207.465 33.4421 206.652 34.852L145.789 140.182L72.0644 267.766ZM354 280.072C353.892 280.064 353.784 280.06 353.675 280.06H232.155L290.248 179.528C291.061 178.118 291.061 176.379 290.248 174.976L273.076 145.254C271.324 142.213 266.941 142.213 265.183 145.248L187.283 280.06H148.564L248.453 107.193C249.266 105.783 249.266 104.045 248.453 102.641L231.281 72.9193C229.529 69.8845 225.14 69.8845 223.382 72.9193L60.3809 355H105.261L126.131 318.882L164.849 318.884L143.979 355H188.851L209.72 318.885L354 318.891V280.072Z" fill="#0E0E0E"/>
</svg>
