<svg width="42" height="43" viewBox="0 0 42 43" fill="none" xmlns="http://www.w3.org/2000/svg">
<path d="M35.9375 6.72913C34.0275 4.79981 31.7525 3.2701 29.2451 2.22923C26.7377 1.18837 24.0482 0.65717 21.3334 0.666628C9.95837 0.666628 0.687541 9.93746 0.687541 21.3125C0.687541 24.9583 1.64587 28.5 3.43754 31.625L0.520874 42.3333L11.4584 39.4583C14.4792 41.1041 17.875 41.9791 21.3334 41.9791C32.7084 41.9791 41.9792 32.7083 41.9792 21.3333C41.9792 15.8125 39.8334 10.625 35.9375 6.72913ZM21.3334 38.4791C18.25 38.4791 15.2292 37.6458 12.5834 36.0833L11.9584 35.7083L5.45837 37.4166L7.18754 31.0833L6.77087 30.4375C5.05785 27.702 4.14825 24.54 4.14587 21.3125C4.14587 11.8541 11.8542 4.14579 21.3125 4.14579C25.8959 4.14579 30.2084 5.93746 33.4375 9.18746C35.0365 10.7791 36.3036 12.6722 37.1654 14.7571C38.0273 16.842 38.4668 19.0773 38.4584 21.3333C38.5 30.7916 30.7917 38.4791 21.3334 38.4791ZM30.75 25.6458C30.2292 25.3958 27.6875 24.1458 27.2292 23.9583C26.75 23.7916 26.4167 23.7083 26.0625 24.2083C25.7084 24.7291 24.7292 25.8958 24.4375 26.2291C24.1459 26.5833 23.8334 26.625 23.3125 26.3541C22.7917 26.1041 21.125 25.5416 19.1667 23.7916C17.625 22.4166 16.6042 20.7291 16.2917 20.2083C16 19.6875 16.25 19.4166 16.5209 19.1458C16.75 18.9166 17.0417 18.5416 17.2917 18.25C17.5417 17.9583 17.6459 17.7291 17.8125 17.3958C17.9792 17.0416 17.8959 16.75 17.7709 16.5C17.6459 16.25 16.6042 13.7083 16.1875 12.6666C15.7709 11.6666 15.3334 11.7916 15.0209 11.7708H14.0209C13.6667 11.7708 13.125 11.8958 12.6459 12.4166C12.1875 12.9375 10.8542 14.1875 10.8542 16.7291C10.8542 19.2708 12.7084 21.7291 12.9584 22.0625C13.2084 22.4166 16.6042 27.625 21.7709 29.8541C23 30.3958 23.9584 30.7083 24.7084 30.9375C25.9375 31.3333 27.0625 31.2708 27.9584 31.1458C28.9584 31 31.0209 29.8958 31.4375 28.6875C31.875 27.4791 31.875 26.4583 31.7292 26.2291C31.5834 26 31.2709 25.8958 30.75 25.6458Z" fill="#E9E9E9"/>
</svg>
